<?xml version="1.0" standalone="no"?><!-- Generator: Gravit.io --><svg xmlns="http://www.w3.org/2000/svg" xmlns:xlink="http://www.w3.org/1999/xlink" style="isolation:isolate" viewBox="465.936 106 348.127 428" width="348.127" height="428"><path d=" M 526.232414 401.214056 C 541.225959 444.502854 580.218775 476.590393 627.220977 481.446345 L 627.220977 512.235581 L 600.979823 512.235581 C 593.926829 512.235581 588.200653 517.111755 588.200653 523.11779 C 588.200653 529.123825 593.926829 534 600.979823 534 L 679.682686 534 C 686.735679 534 692.461856 529.123825 692.461856 523.11779 C 692.461856 517.111755 686.735679 512.235581 679.682686 512.235581 L 652.779065 512.235581 L 652.779065 481.372109 C 699.47792 476.270842 738.165001 444.275374 753.078784 401.188682 C 780.525417 402.094455 800.946941 395.367419 809.624698 380.337196 C 822.909447 357.327355 805.579684 320.211527 768.182992 282.450693 C 805.550793 244.658959 822.920501 207.500549 809.624698 184.47149 C 797.137194 162.842604 760.330869 158.407948 713.243127 169.202608 C 710.952505 153.540943 703.683212 138.946334 692.365764 127.628761 C 678.523307 113.786429 659.490023 106 639.879938 106 C 620.269853 106 601.524969 113.786429 587.682638 127.628761 C 576.374611 138.936788 569.108081 153.516449 566.809169 169.162664 C 519.716402 158.402295 482.870887 162.828661 470.375345 184.47149 C 457.089967 207.482587 474.422368 244.601178 511.799465 282.366157 C 474.445858 320.157138 457.080923 357.310397 470.375345 380.337196 C 478.979996 395.240679 499.131208 401.980401 526.232414 401.214056 Z  M 549.699474 398.898312 C 563.176784 435.510193 598.385226 461.648976 639.650575 461.648976 C 680.975965 461.648976 716.226738 435.434074 729.655561 398.736401 C 723.056899 397.775109 716.107785 396.358104 708.935965 394.59831 L 708.935965 394.59831 C 705.296294 404.06339 699.675378 412.740016 692.365764 420.04963 C 678.523307 434.180362 659.490023 441.966665 639.879938 441.966665 C 620.269853 441.966665 601.524969 434.180362 587.682638 420.04963 C 580.387971 412.754963 574.775095 404.098937 571.136178 394.65584 C 563.711882 396.469771 556.524863 397.917802 549.699474 398.898312 Z  M 693.80764 340.875102 C 688.95307 343.908956 683.988717 346.89307 678.921616 349.818523 C 648.663207 367.288216 618.422761 380.540181 590.660596 389.149229 C 593.283707 395.36139 597.077627 401.043729 601.81337 405.918773 C 611.906749 416.012152 625.749206 421.779906 639.879938 421.779906 C 654.299196 421.779906 667.853127 416.012152 677.946507 405.918773 C 688.040012 395.825393 693.80764 382.271336 693.80764 367.852204 L 693.80764 340.875102 L 693.80764 340.875102 Z  M 754.404848 295.555192 C 742.424054 306.402733 728.856808 317.170889 713.994525 327.542872 L 713.994525 367.852204 C 713.994525 370.636472 713.837513 373.403406 713.475882 376.131778 C 752.517434 386.545965 781.990656 385.068668 790.947894 369.554218 C 800.2846 353.382577 785.267942 325.532612 754.404848 295.555192 L 754.404848 295.555192 Z  M 713.994525 261.827439 L 713.994525 302.981247 C 723.335878 296.163269 732.032477 289.273443 739.976421 282.422054 C 732.063 275.559485 723.352333 268.657349 713.994525 261.827439 L 713.994525 261.827439 Z  M 586.240637 194.507843 L 586.240637 367.852204 C 586.240637 368.674195 586.259353 369.493423 586.281711 370.312022 C 611.796715 361.68878 640.139197 348.855724 668.809144 332.303234 C 677.4663 327.304967 685.814959 322.163002 693.80764 316.930221 L 693.80764 247.878465 C 685.814959 242.645684 677.4663 237.503719 668.809144 232.505452 C 640.115708 215.939271 611.750114 203.098803 586.240637 194.507843 L 586.240637 194.507843 Z  M 525.621322 269.215308 C 537.609149 258.360858 551.183932 247.585919 566.053877 237.207908 L 566.053877 188.436742 C 527.30374 178.27189 497.982129 179.787122 489.052148 195.254468 C 479.719587 211.418949 494.719037 239.251706 525.621322 269.215308 L 525.621322 269.215308 Z  M 566.053877 302.970319 L 566.053877 261.830705 C 556.696948 268.653204 547.987161 275.54818 540.033042 282.404594 C 547.99206 289.258496 556.699586 296.150583 566.053877 302.970319 L 566.053877 302.970319 Z  M 525.619814 295.562603 C 494.730593 325.535501 479.715945 353.383456 489.052148 369.554218 C 498.017803 385.083238 527.538379 386.548728 566.576917 376.177374 C 566.212523 373.434055 566.053877 370.651922 566.053877 367.852204 L 566.053877 327.595753 C 551.170994 317.209451 537.585786 306.425594 525.619814 295.562603 L 525.619814 295.562603 Z  M 693.80764 223.933584 L 693.80764 179.826186 C 693.80764 165.695455 688.040012 151.853123 677.946507 141.759618 C 667.853127 131.666238 654.299196 126.186885 639.879938 126.186885 C 625.749206 126.186885 611.906749 131.666238 601.81337 141.759618 C 593.282325 150.541631 587.80762 162.161673 586.571996 174.345954 C 615.474446 182.98653 647.188171 196.668835 678.921616 214.990037 C 683.988717 217.915616 688.95307 220.899729 693.80764 223.933584 L 693.80764 223.933584 Z  M 654.92109 273.858225 C 653.830922 265.319267 648.380459 260.232194 638.751334 260.232194 C 629.122208 260.232194 622.581703 264.592489 620.583124 273.858225 L 654.92109 273.858225 Z  M 620.946514 288.029403 C 623.308481 296.02334 629.848986 300.565392 640.931544 300.565392 C 649.833891 300.565392 656.556154 297.113508 660.371427 294.388276 L 674.360973 309.467865 C 666.911932 316.008496 657.464564 320.913812 641.294933 320.913812 C 613.679356 320.913812 595.874536 304.199034 595.874536 280.39873 C 595.874536 256.961816 614.587766 240.247289 638.569702 240.247289 C 666.366911 240.247289 681.4465 260.958721 679.629679 288.029403 L 620.946514 288.029403 Z  M 754.369803 269.274219 C 785.261285 239.288384 800.28661 211.429626 790.947894 195.254468 C 782.023691 179.797296 752.734613 178.2739 713.994525 188.455332 L 713.994525 237.265814 C 728.865601 247.643826 742.440007 258.418639 754.369803 269.274219 L 754.369803 269.274219 Z " fill-rule="evenodd" fill="rgb(0,0,0)"/></svg>