<?xml version="1.0" standalone="no"?><!-- Generator: Gravit.io --><svg xmlns="http://www.w3.org/2000/svg" xmlns:xlink="http://www.w3.org/1999/xlink" style="isolation:isolate" viewBox="0 0 24 24" width="24" height="24"><path d=" M 0 12 C 0 8.9 1.2 5.8 3.5 3.6 C 5.7 1.3 8.8 0 12 0 C 15.2 0 18.2 1.3 20.5 3.6 C 22.7 5.8 24 8.9 24 12 C 24 15.2 22.7 18.3 20.5 20.5 C 18.2 22.8 15.2 24 12 24 C 8.8 24 5.7 22.8 3.5 20.5 C 1.2 18.3 0 15.2 0 12 Z  M 2.2 12 C 2.2 9.4 3.2 6.9 5 5.1 C 6.9 3.3 9.4 2.2 12 2.2 C 14.6 2.2 17.1 3.3 18.9 5.1 C 20.8 6.9 21.8 9.4 21.8 12 C 21.8 14.6 20.8 17.1 18.9 19 C 17.1 20.8 14.6 21.9 12 21.9 C 9.4 21.9 6.9 20.8 5 19 C 3.2 17.1 2.2 14.6 2.2 12 Z " fill-rule="evenodd" fill="rgb(0,0,0)"/><path d=" M 16.65808 9.242302 L 9.304196 16.596186 C 8.738476 17.161906 7.889939 17.161863 7.394956 16.66688 C 6.829279 16.101203 6.829279 15.252709 7.394999 14.686989 L 14.748883 7.333105 C 15.243867 6.838121 16.09236 6.838121 16.658037 7.403798 C 17.153021 7.898782 17.153064 8.747318 16.65808 9.242302 Z " fill="rgb(0,0,0)"/><path d=" M 7.341919 9.242302 L 14.695804 16.596186 C 15.261524 17.161906 16.110061 17.161863 16.605044 16.66688 C 17.170721 16.101203 17.170721 15.252709 16.605001 14.686989 L 9.251116 7.333105 C 8.756133 6.838121 7.907639 6.838121 7.341963 7.403798 C 6.846979 7.898782 6.846936 8.747318 7.341919 9.242302 Z " fill="rgb(0,0,0)"/></svg>