<?xml version="1.0" standalone="no"?><!-- Generator: Gravit.io --><svg xmlns="http://www.w3.org/2000/svg" xmlns:xlink="http://www.w3.org/1999/xlink" style="isolation:isolate" viewBox="0 0 24 24" width="24" height="24"><path d=" M -0.000024 12.000012 C -0.000024 8.899976 1.199988 5.8 3.499976 3.599988 C 5.699988 1.3 8.800024 0.000012 11.999976 0.000012 C 15.199988 0.000012 18.199988 1.3 20.499976 3.599988 C 22.699988 5.8 23.999976 8.899976 23.999976 12.000012 C 23.999976 15.200024 22.699988 18.3 20.499976 20.500012 C 18.199988 22.8 15.199988 24.000012 11.999976 24.000012 C 8.800024 24.000012 5.699988 22.8 3.499976 20.500012 C 1.199988 18.3 -0.000024 15.200024 -0.000024 12.000012 Z " fill="rgb(0,0,0)"/><g><path d=" M 16.65808 9.242301 L 9.304195 16.596186 C 8.738476 17.161906 7.889939 17.161863 7.394956 16.66688 C 6.829279 16.101203 6.829279 15.252709 7.394998 14.68699 L 14.748883 7.333104 C 15.243867 6.838121 16.092361 6.838121 16.658038 7.403798 C 17.153021 7.898781 17.153064 8.747318 16.65808 9.242301 Z " fill="rgb(255,255,255)"/><path d=" M 7.341919 9.242302 L 14.695804 16.596186 C 15.261524 17.161906 16.110061 17.161863 16.605044 16.66688 C 17.170721 16.101203 17.170721 15.252709 16.605001 14.686989 L 9.251116 7.333105 C 8.756133 6.838121 7.907639 6.838121 7.341963 7.403798 C 6.846979 7.898782 6.846936 8.747318 7.341919 9.242302 Z " fill="rgb(255,255,255)"/></g></svg>