<?xml version="1.0" standalone="no"?><!-- Generator: Gravit.io --><svg xmlns="http://www.w3.org/2000/svg" xmlns:xlink="http://www.w3.org/1999/xlink" style="isolation:isolate" viewBox="861.9 700.2 24 24" width="24" height="24"><g id="download"><path d=" M 861.9 712.2 C 861.9 709.1 863.2 706 865.4 703.8 C 867.7 701.5 870.7 700.2 873.9 700.2 C 877.1 700.2 880.1 701.5 882.4 703.8 C 884.7 706 885.9 709.1 885.9 712.2 C 885.9 715.4 884.7 718.5 882.4 720.7 C 880.1 723 877.1 724.2 873.9 724.2 C 870.7 724.2 867.7 723 865.4 720.7 C 863.2 718.5 861.9 715.4 861.9 712.2 Z  M 864.1 712.2 C 864.1 709.6 865.1 707.1 867 705.3 C 868.8 703.5 871.3 702.4 873.9 702.4 C 876.5 702.4 879 703.5 880.9 705.3 C 882.7 707.1 883.7 709.6 883.7 712.2 C 883.7 714.8 882.7 717.3 880.9 719.2 C 879 721 876.5 722.1 873.9 722.1 C 871.3 722.1 868.8 721 867 719.2 C 865.1 717.3 864.1 714.8 864.1 712.2 Z " fill-rule="evenodd" fill="rgb(0,0,0)"/><path d=" M 868.1 715 C 868.1 714.5 868.5 714 869 714 C 869.5 714 870 714.5 870 715 L 870 716.8 L 877.9 716.8 L 877.9 715 C 877.9 714.5 878.3 714 878.8 714 C 879.3 714 879.8 714.5 879.8 715 L 879.8 716.6 C 879.8 717.7 878.9 718.7 877.7 718.7 L 870.1 718.7 C 869 718.7 868.1 717.7 868.1 716.6 L 868.1 715 Z " fill="rgb(0,0,0)"/><path d=" M 872.8 711.8 L 872.5 711.5 C 872.1 711.1 871.4 711.1 871 711.5 C 870.5 711.9 870.5 712.6 871 713 L 873.9 716 L 876.9 713 C 877.3 712.6 877.3 711.9 876.9 711.5 C 876.4 711.1 875.7 711.1 875.3 711.5 L 875 711.8 L 875 706.8 C 875 706.2 874.5 705.7 873.9 705.7 C 873.3 705.7 872.8 706.2 872.8 706.8 L 872.8 711.8 Z " fill="rgb(0,0,0)"/></g></svg>