<?xml version="1.0" standalone="no"?><!-- Generator: Gravit.io --><svg xmlns="http://www.w3.org/2000/svg" xmlns:xlink="http://www.w3.org/1999/xlink" style="isolation:isolate" viewBox="651.455 711.8 25.19 20.7" width="25.19" height="20.7"><path d=" M 676.592191 715.01889 C 676.533195 714.215845 676.22712 713.437531 675.6 712.9 C 675 712.2 674.1 711.8 673.2 711.8 L 654.9 711.8 L 654.9 711.8 C 654 711.8 653.1 712.2 652.5 712.9 C 651.87288 713.437531 651.566805 714.215845 651.507809 715.01889 C 651.436959 715.228577 651.440793 715.454149 651.5 715.656727 L 651.5 729 C 651.5 729.9 651.8 730.8 652.5 731.5 C 653.1 732.1 654 732.5 654.9 732.5 L 673.2 732.5 C 674.1 732.5 675 732.1 675.6 731.5 C 676.3 730.8 676.6 729.9 676.6 729 L 676.6 715.656727 C 676.659207 715.454149 676.663041 715.228577 676.592191 715.01889 Z  M 674.191567 714.728157 C 674.132564 714.643548 674.066282 714.566282 674 714.5 C 673.8 714.3 673.5 714.1 673.2 714.1 L 654.9 714.1 L 654.9 714.1 C 654.6 714.1 654.3 714.3 654.1 714.5 C 654.033019 714.566981 653.966038 714.645178 653.90657 714.730835 L 664 721.9 L 674.191567 714.728157 Z  M 674.4 717.454098 L 674.4 729 C 674.4 729.7 673.8 730.2 673.2 730.2 L 654.9 730.2 C 654.3 730.2 653.7 729.7 653.7 729 L 653.7 717.464463 L 664 724.7 L 674.4 717.454098 Z " fill-rule="evenodd" fill="rgb(0,0,0)"/></svg>