<?xml version="1.0" standalone="no"?><!-- Generator: Gravit.io --><svg xmlns="http://www.w3.org/2000/svg" xmlns:xlink="http://www.w3.org/1999/xlink" style="isolation:isolate" viewBox="716.1 709.6 15.2 25.1" width="15.2" height="25.1"><path d=" M 728.6 711.8 L 726.4 711.8 C 725.1 711.8 724 712.3 723.1 713.2 C 722.3 714 721.8 715.2 721.8 716.4 L 721.8 721 L 718.3 721 L 718.3 723.3 L 721.8 723.3 L 721.8 732.5 L 724.1 732.5 L 724.1 723.3 L 727.8 723.3 L 728.3 721 L 724.1 721 L 724.1 716.4 C 724.1 715.2 725.1 714.1 726.4 714.1 L 728.6 714.1 L 728.6 711.8 Z  M 730.9 709.6 L 726.4 709.6 C 724.5 709.6 722.8 710.3 721.5 711.6 C 720.2 712.9 719.5 714.6 719.5 716.4 L 719.5 718.7 L 716.1 718.7 L 716.1 725.6 L 719.5 725.6 L 719.5 734.7 L 726.4 734.7 L 726.4 725.6 L 729.5 725.6 L 731.3 718.7 L 726.4 718.7 L 726.4 716.4 L 730.9 716.4 L 730.9 709.6 Z " fill-rule="evenodd" fill="rgb(0,0,0)"/></svg>