<?xml version="1.0" standalone="no"?><!-- Generator: Gravit.io --><svg xmlns="http://www.w3.org/2000/svg" xmlns:xlink="http://www.w3.org/1999/xlink" style="isolation:isolate" viewBox="743.12 709.6 25.103 25.1" width="25.103" height="25.1"><path d=" M 748.966806 728.852845 L 748.966806 728.852845 L 748.966806 728.852845 Q 749.965103 729.851141 749.965103 731.27728 L 749.965103 731.27728 L 749.965103 731.27728 Q 749.965103 732.703418 748.966806 733.701715 L 748.966806 733.701715 L 748.966806 733.701715 Q 747.968509 734.700012 746.542371 734.700012 L 746.542371 734.700012 L 746.542371 734.700012 Q 745.116233 734.700012 744.117936 733.701715 L 744.117936 733.701715 L 744.117936 733.701715 Q 743.119639 732.703418 743.119639 731.27728 L 743.119639 731.27728 L 743.119639 731.27728 Q 743.119639 729.851141 744.117936 728.852845 L 744.117936 728.852845 L 744.117936 728.852845 Q 745.116233 727.854548 746.542371 727.854548 L 746.542371 727.854548 L 746.542371 727.854548 Q 747.968509 727.854548 748.966806 728.852845 Z  M 759.092389 733.469968 L 759.092389 733.469968 L 759.092389 733.469968 Q 759.128043 733.969116 758.789335 734.325651 L 758.789335 734.325651 L 758.789335 734.325651 Q 758.468454 734.700012 757.951479 734.700012 L 757.951479 734.700012 L 757.54487 734.700012 L 757.54487 734.700012 Q 757.099202 734.700012 756.778321 734.405871 L 756.778321 734.405871 L 756.778321 734.405871 Q 756.457439 734.11173 756.421786 733.666062 L 756.421786 733.666062 L 756.421786 733.666062 Q 754.625 723.375 744.153589 721.397865 L 744.153589 721.397865 L 744.153589 721.397865 Q 743.707921 721.362212 743.41378 721.04133 L 743.41378 721.04133 L 743.41378 721.04133 Q 743.119639 720.720449 743.119639 720.274781 L 743.119639 720.274781 L 743.119639 719.868172 L 743.119639 719.868172 Q 743.119639 719.351197 743.494 719.030316 L 743.494 719.030316 L 743.494 719.030316 Q 743.797055 718.727262 744.26055 718.727262 L 744.26055 718.727262 L 744.349683 718.727262 L 744.349683 718.727262 Q 747.20196 718.959009 749.804663 720.162313 L 749.804663 720.162313 L 749.804663 720.162313 Q 752.407365 721.365618 754.421786 723.397865 L 754.421786 723.397865 L 754.421786 723.397865 Q 756.454033 725.412286 757.657338 728.014988 L 757.657338 728.014988 L 757.657338 728.014988 Q 758.860642 730.617691 759.092389 733.469968 Z  M 768.219675 733.505621 L 768.219675 733.505621 L 768.219675 733.505621 Q 768.255329 733.986943 767.898794 734.343478 L 767.898794 734.343478 L 767.898794 734.343478 Q 767.577913 734.700012 767.078765 734.700012 L 767.078765 734.700012 L 766.529542 734.700012 L 766.529542 734.700012 Q 766.066047 734.700012 765.736253 734.388044 L 765.736253 734.388044 L 765.736253 734.388044 Q 765.406458 734.076077 765.388631 733.630408 L 765.388631 733.630408 L 765.388631 733.630408 Q 765.174711 729.797661 763.588132 726.348189 L 763.588132 726.348189 L 763.588132 726.348189 Q 761.484987 721.695932 758.461243 718.900024 C 755.4375 716.104117 752.125 713.25 744.189243 712.413193 L 744.189243 712.413193 L 744.189243 712.413193 Q 743.743574 712.395366 743.431607 712.065572 L 743.431607 712.065572 L 743.431607 712.065572 Q 743.119639 711.735777 743.119639 711.290109 L 743.119639 711.290109 L 743.119639 710.740886 L 743.119639 710.740886 Q 743.119639 710.241738 743.476173 709.920857 L 743.476173 709.920857 L 743.476173 709.920857 Q 743.797055 709.599976 744.26055 709.599976 L 744.26055 709.599976 L 744.31403 709.599976 L 744.31403 709.599976 Q 748.984633 709.831723 753.254135 711.739183 L 753.254135 711.739183 L 753.254135 711.739183 Q 757.523637 713.646643 760.839409 716.980242 L 760.839409 716.980242 L 760.839409 716.980242 Q 764.173008 720.296014 766.080468 724.565516 L 766.080468 724.565516 L 766.080468 724.565516 Q 767.987928 728.835018 768.219675 733.505621 Z " fill-rule="evenodd" fill="rgb(0,0,0)"/></svg>