<?xml version="1.0" standalone="no"?><!-- Generator: Gravit.io --><svg xmlns="http://www.w3.org/2000/svg" xmlns:xlink="http://www.w3.org/1999/xlink" style="isolation:isolate" viewBox="549.053 709 24.672 26.3" width="24.672" height="26.3"><path d=" M 557.099976 729.771421 L 555.900024 730 C 554.700012 729.900024 553.700012 729.200012 553 728.200012 C 552.900024 728.099976 552.900024 728.099976 552.799988 728 L 550.900024 726.400024 C 550.5 726 549.700012 726.099976 549.299988 726.599976 C 548.900024 727.099976 549 727.799988 549.5 728.200012 L 551.200012 729.700012 C 552.299988 731.200012 554 732.099976 555.799988 732.299988 C 555.900024 732.299988 556 732.299988 556.099976 732.299988 L 557.099976 732.126094 L 557.099976 734.200012 C 557.099976 734.799988 557.599976 735.299988 558.200012 735.299988 C 558.900024 735.299988 559.400024 734.799988 559.400024 734.200012 L 559.400024 730.912582 C 559.41664 730.810173 559.417536 730.705075 559.400024 730.599976 L 559.400024 729.700012 L 559.400024 729.5 C 559.400024 728.799988 559.599976 728.099976 560.099976 727.599976 C 560.400024 727.299988 560.5 726.799988 560.400024 726.400024 C 560.200012 726 559.799988 725.700012 559.400024 725.700012 C 557.799988 725.599976 556.299988 725 555 724.099976 C 553.599976 722.700012 552.900024 720.799988 553.099976 718.900024 C 553.099976 718.799988 553.099976 718.799988 553.099976 718.799988 C 553.099976 717.5 553.599976 716.200012 554.5 715.299988 C 554.700012 715 554.799988 714.599976 554.799988 714.299988 L 554.400024 712.400024 L 554.700012 711.400024 C 555.700012 711.599976 556.700012 712.099976 557.5 712.700012 C 557.700012 712.900024 558.099976 713 558.400024 713 L 562.200012 712.5 L 566.099976 713 C 566.400024 713 566.700012 712.900024 567 712.700012 C 567.799988 712.099976 568.799988 711.599976 569.799988 711.400024 L 570 712.400024 L 569.700012 714.299988 C 569.599976 714.599976 569.700012 715 570 715.299988 C 570.900024 716.200012 571.400024 717.5 571.400024 718.799988 C 571.5 720.799988 570.799988 722.700012 569.400024 724.099976 C 568.200012 725 566.700012 725.5 565.099976 725.599976 C 564.700012 725.700012 564.299988 725.900024 564.099976 726.400024 C 563.900024 726.799988 564 727.200012 564.299988 727.599976 C 564.799988 728.099976 565.099976 728.700012 565.099976 729.400024 L 565.099976 729.700012 L 565.099976 734.200012 C 565.099976 734.799988 565.599976 735.299988 566.200012 735.299988 C 566.900024 735.299988 567.400024 734.799988 567.400024 734.200012 L 567.400024 729.799988 L 567.400024 729.5 C 567.400024 728.799988 567.299988 728.200012 567.099976 727.700012 C 568.5 727.299988 569.799988 726.700012 570.900024 725.799988 C 572.900024 724 573.900024 721.400024 573.700012 718.700012 C 573.700012 717 573.099976 715.400024 572 714.099976 L 572.299988 712.400024 L 571.700012 709.099976 L 570.5 709 C 570.400024 709 570.400024 709 570.299988 709 C 568.700012 709.099976 567.200012 709.700012 565.900024 710.599976 L 562.200012 710.200012 L 558.5 710.599976 C 557.299988 709.700012 555.799988 709.099976 554.200012 709 C 554.099976 709 554 709 554 709 L 552.799988 709.099976 L 552.099976 712.400024 L 552.400024 714.099976 C 551.400024 715.400024 550.799988 717.099976 550.799988 718.799988 L 550.799988 718.700012 C 550.799988 718.700012 550.799988 718.700012 550.799988 718.799988 C 550.599976 721.400024 551.599976 724 553.5 725.799988 C 554.700012 726.700012 556 727.299988 557.400024 727.700012 C 557.200012 728.299988 557.099976 728.900024 557.099976 729.5 L 557.099976 729.771421 Z " fill="rgb(0,0,0)"/></svg>