<?xml version="1.0" standalone="no"?><!-- Generator: Gravit.io --><svg xmlns="http://www.w3.org/2000/svg" xmlns:xlink="http://www.w3.org/1999/xlink" style="isolation:isolate" viewBox="549.063 708.972 24.614 26.362" width="24.614" height="26.362"><path d=" M 558.222261 730.754958 C 552.498027 732.472228 552.498027 727.892841 550.208333 727.320418 M 566.236188 734.189498 L 566.236188 729.758941 C 566.323063 728.654619 565.931076 727.566231 565.160032 726.770891 C 568.754851 726.370195 572.532845 725.007827 572.532845 718.756964 C 572.532551 717.15856 571.91771 715.621456 570.815575 714.463788 C 571.33746 713.065366 571.30056 711.519642 570.712539 710.147716 C 570.712539 710.147716 569.36162 709.74702 566.236188 711.842089 C 563.61221 711.130935 560.846239 711.130935 558.222261 711.842089 C 555.096829 709.74702 553.74591 710.147716 553.74591 710.147716 C 553.157889 711.519642 553.120989 713.065366 553.642874 714.463788 C 552.532518 715.630043 551.917043 717.18104 551.925603 718.791309 C 551.925603 724.996379 555.703598 726.358746 559.298417 726.805237 C 558.536658 727.592391 558.145409 728.666246 558.222261 729.758941 L 558.222261 734.189498" fill="none" vector-effect="non-scaling-stroke" stroke-width="2.289694" stroke="rgb(0,0,0)" stroke-linejoin="round" stroke-linecap="round" stroke-miterlimit="4"/></svg>