<?xml version="1.0" standalone="no"?><!-- Generator: Gravit.io --><svg xmlns="http://www.w3.org/2000/svg" xmlns:xlink="http://www.w3.org/1999/xlink" style="isolation:isolate" viewBox="827.85 655.2 24 24" width="24" height="24"><g id="info2"><path d=" M 827.849976 667.200012 C 827.849976 664.099976 829.049988 661 831.349976 658.799988 C 833.549988 656.5 836.650024 655.200012 839.849976 655.200012 C 843.049988 655.200012 846.049988 656.5 848.349976 658.799988 C 850.549988 661 851.849976 664.099976 851.849976 667.200012 C 851.849976 670.400024 850.549988 673.5 848.349976 675.700012 C 846.049988 678 843.049988 679.200012 839.849976 679.200012 C 836.650024 679.200012 833.549988 678 831.349976 675.700012 C 829.049988 673.5 827.849976 670.400024 827.849976 667.200012 Z " fill="rgb(0,0,0)"/><path d=" M 841.150024 667.200012 L 841.150024 671.599976 C 841.150024 672.400024 840.549988 673 839.849976 673 C 839.049988 673 838.450012 672.400024 838.450012 671.599976 L 838.450012 667.200012 C 838.450012 666.5 839.049988 665.900024 839.849976 665.900024 C 840.549988 665.900024 841.150024 666.5 841.150024 667.200012 Z " fill="rgb(255,255,255)"/><path d=" M 838.484375 662.875 C 838.484375 662.129052 839.08999 661.523438 839.835938 661.523438 C 840.581885 661.523438 841.1875 662.129052 841.1875 662.875 C 841.1875 663.620948 840.581885 664.226563 839.835938 664.226563 C 839.08999 664.226563 838.484375 663.620948 838.484375 662.875 Z " fill="rgb(255,255,255)"/></g></svg>