<?xml version="1.0" standalone="no"?><!-- Generator: Gravit.io --><svg xmlns="http://www.w3.org/2000/svg" xmlns:xlink="http://www.w3.org/1999/xlink" style="isolation:isolate" viewBox="830.6 700.2 24 24" width="24" height="24"><g id="info"><path d=" M 830.6 712.2 C 830.6 709.1 831.8 706 834.1 703.8 C 836.3 701.5 839.4 700.2 842.6 700.2 C 845.8 700.2 848.8 701.5 851.1 703.8 C 853.3 706 854.6 709.1 854.6 712.2 C 854.6 715.4 853.3 718.5 851.1 720.7 C 848.8 723 845.8 724.2 842.6 724.2 C 839.4 724.2 836.3 723 834.1 720.7 C 831.8 718.5 830.6 715.4 830.6 712.2 Z  M 832.8 712.2 C 832.8 709.6 833.8 707.1 835.6 705.3 C 837.5 703.5 840 702.4 842.6 702.4 C 845.2 702.4 847.7 703.5 849.5 705.3 C 851.4 707.1 852.4 709.6 852.4 712.2 C 852.4 714.8 851.4 717.3 849.5 719.2 C 847.7 721 845.2 722.1 842.6 722.1 C 840 722.1 837.5 721 835.6 719.2 C 833.8 717.3 832.8 714.8 832.8 712.2 Z " fill-rule="evenodd" fill="rgb(0,0,0)"/><path d=" M 843.900024 712.200012 L 843.900024 716.599976 C 843.900024 717.400024 843.299988 718 842.599976 718 C 841.799988 718 841.200012 717.400024 841.200012 716.599976 L 841.200012 712.200012 C 841.200012 711.5 841.799988 710.900024 842.599976 710.900024 C 843.299988 710.900024 843.900024 711.5 843.900024 712.200012 Z " fill="rgb(0,0,0)"/><path d=" M 841.234375 707.875 C 841.234375 707.129052 841.83999 706.523438 842.585938 706.523438 C 843.331885 706.523438 843.9375 707.129052 843.9375 707.875 C 843.9375 708.620948 843.331885 709.226563 842.585938 709.226563 C 841.83999 709.226563 841.234375 708.620948 841.234375 707.875 Z " fill="rgb(0,0,0)"/></g></svg>