<?xml version="1.0" standalone="no"?><!-- Generator: Gravit.io --><svg xmlns="http://www.w3.org/2000/svg" xmlns:xlink="http://www.w3.org/1999/xlink" style="isolation:isolate" viewBox="683.8 709.6 25.1 25.1" width="25.1" height="25.1"><g id="instagram"><path d=" M 690.6 709.6 L 702.1 709.6 C 703.9 709.6 705.6 710.3 706.9 711.6 C 708.2 712.9 708.9 714.6 708.9 716.4 L 708.9 727.9 C 708.9 729.7 708.2 731.4 706.9 732.7 C 705.6 734 703.9 734.7 702.1 734.7 L 690.6 734.7 C 688.8 734.7 687.1 734 685.8 732.7 C 684.5 731.4 683.8 729.7 683.8 727.9 L 683.8 716.4 C 683.8 714.6 684.5 712.9 685.8 711.6 C 687.1 710.3 688.8 709.6 690.6 709.6 Z  M 690.6 711.8 L 702.1 711.8 C 703.3 711.8 704.5 712.3 705.3 713.2 C 706.2 714 706.7 715.2 706.7 716.4 L 706.7 727.9 C 706.7 729.1 706.2 730.3 705.3 731.1 C 704.5 732 703.3 732.5 702.1 732.5 L 690.6 732.5 C 689.4 732.5 688.2 732 687.4 731.1 C 686.5 730.3 686 729.1 686 727.9 L 686 716.4 C 686 715.2 686.5 714 687.4 713.2 C 688.2 712.3 689.4 711.8 690.6 711.8 Z " fill-rule="evenodd" fill="rgb(0,0,0)"/><path d=" M 702.1 721.3 L 702.1 722 C 702.1 722 702.1 722.1 702.1 722.1 C 702.1 724.3 700.9 726.2 699 727.2 C 698.9 727.3 698.8 727.3 698.7 727.3 L 696.7 727.8 C 696.6 727.8 696.5 727.8 696.4 727.8 C 694.9 727.8 693.4 727.2 692.3 726.2 C 691.3 725.1 690.7 723.6 690.7 722.1 C 690.7 722 690.7 721.9 690.7 721.8 L 691.2 719.8 C 691.2 719.7 691.2 719.6 691.3 719.5 C 692.3 717.6 694.2 716.4 696.4 716.4 C 696.4 716.4 696.5 716.4 696.5 716.4 L 697.2 716.4 C 697.2 716.4 697.2 716.4 697.2 716.4 C 699.7 716.8 701.7 718.8 702.1 721.3 C 702.1 721.3 702.1 721.3 702.1 721.3 Z  M 698.1 725.1 L 696.3 725.5 C 695.4 725.5 694.6 725.1 694 724.5 C 693.4 723.9 693 723.1 693 722.2 L 693.4 720.4 C 694 719.4 695.1 718.7 696.4 718.7 L 696.9 718.7 C 698.4 718.9 699.6 720.1 699.8 721.6 L 699.8 722.1 C 699.8 723.4 699.1 724.5 698.1 725.1 Z " fill-rule="evenodd" fill="rgb(0,0,0)"/><path d=" M 701.543569 715.9 C 701.543569 715.292893 702.036462 714.8 702.643569 714.8 C 703.250675 714.8 703.743569 715.292893 703.743569 715.9 C 703.743569 716.507107 703.250675 717 702.643569 717 C 702.036462 717 701.543569 716.507107 701.543569 715.9 Z " fill="rgb(0,0,0)"/></g></svg>