<?xml version="1.0" standalone="no"?><!-- Generator: Gravit.io --><svg xmlns="http://www.w3.org/2000/svg" xmlns:xlink="http://www.w3.org/1999/xlink" style="isolation:isolate" viewBox="683.754 709.56 25.187 25.187" width="25.187" height="25.187"><g id="instagram"><g id="instagram"><path d="M 690.622678 710.704802 L 702.071145 710.704802 C 705.230436 710.704802 707.795379 713.269746 707.795379 716.429036 L 707.795379 727.877504 C 707.795379 731.036795 705.230436 733.601738 702.071145 733.601738 L 690.622678 733.601738 C 687.463387 733.601738 684.898444 731.036795 684.898444 727.877504 L 684.898444 716.429036 C 684.898444 713.269746 687.463387 710.704802 690.622678 710.704802 Z" style="fill:none;stroke:#000000;stroke-width:2.2896935274154937;stroke-linecap:round;stroke-linejoin:round;"/><path d=" M 700.926299 721.432017 C 701.216085 723.386238 700.219958 725.306 698.455292 726.194206 C 696.690626 727.082411 694.555282 726.738806 693.158329 725.341853 C 691.761376 723.9449 691.41777 721.809556 692.305976 720.04489 C 693.194182 718.280224 695.113944 717.284097 697.068165 717.573883 C 699.063606 717.869782 700.6304 719.436575 700.926299 721.432017 Z " fill="none" vector-effect="non-scaling-stroke" stroke-width="2.289694" stroke="rgb(0,0,0)" stroke-linejoin="round" stroke-linecap="round" stroke-miterlimit="4"/><line x1="702.643569" y1="715.856613" x2="702.643569" y2="715.856613" vector-effect="non-scaling-stroke" stroke-width="2.289694" stroke="rgb(0,0,0)" stroke-linejoin="round" stroke-linecap="round" stroke-miterlimit="4"/></g></g></svg>