<?xml version="1.0" standalone="no"?><!-- Generator: Gravit.io --><svg xmlns="http://www.w3.org/2000/svg" xmlns:xlink="http://www.w3.org/1999/xlink" style="isolation:isolate" viewBox="523.685 527.333 232.629 40.79" width="232.629" height="40.79"><path d=" M 531.36473 557.940025 L 549.339174 557.940025 C 549.895683 549.64838 545.276849 543.304448 536.762639 543.304448 C 529.417018 543.304448 523.68526 548.424126 523.68526 555.602752 C 523.68526 562.892708 529.138787 568.012386 537.597379 568.012386 C 542.550062 568.012386 545.443798 566.509853 547.725358 564.506524 L 543.440468 559.88769 C 542.271831 560.72243 540.212836 561.779736 537.486049 561.779736 C 534.091517 561.779736 532.08814 560.388534 531.36473 557.940025 Z  M 531.253447 553.599422 C 531.865574 550.761352 533.868904 549.425767 536.818257 549.425767 C 539.767657 549.425767 541.437091 550.983965 541.770987 553.599422 L 531.253447 553.599422 Z  M 550.244015 567.511542 L 557.700919 567.511542 L 557.700919 527.333333 L 550.244015 527.333333 L 550.244015 567.511542 Z  M 566.229612 557.940025 L 584.204056 557.940025 C 584.760518 549.64838 580.141731 543.304448 571.627521 543.304448 C 564.2819 543.304448 558.550094 548.424126 558.550094 555.602752 C 558.550094 562.892708 564.003669 568.012386 572.462214 568.012386 C 577.414944 568.012386 580.308679 566.509853 582.59024 564.506524 L 578.305302 559.88769 C 577.136713 560.72243 575.077718 561.779736 572.350931 561.779736 C 568.956352 561.779736 566.953022 560.388534 566.229612 557.940025 Z  M 566.118281 553.599422 C 566.730409 550.761352 568.733786 549.425767 571.683139 549.425767 C 574.632492 549.425767 576.301973 550.983965 576.635869 553.599422 L 566.118281 553.599422 Z  M 584.941949 567.511542 L 592.454471 567.511542 L 592.454471 554.823677 C 592.454471 551.596092 593.790055 550.149225 596.68379 550.149225 C 599.521861 550.149225 600.356554 551.65171 600.356554 554.434162 L 600.356554 567.511542 L 607.813458 567.511542 L 607.813458 554.823677 C 607.813458 551.596092 609.093377 550.149225 611.987113 550.149225 C 614.825183 550.149225 615.715541 551.65171 615.715541 554.434162 L 615.715541 567.511542 L 623.172445 567.511542 L 623.172445 553.76637 C 623.172445 547.255489 619.722248 543.304448 613.767876 543.304448 C 610.262014 543.304448 607.64651 544.918264 605.698845 547.366772 C 604.251977 544.584367 602.081652 543.304448 599.021016 543.304448 C 596.182946 543.304448 593.957003 544.584367 592.287522 547.478103 L 592.454471 543.805292 L 584.941949 543.805292 L 584.941949 567.511542 Z  M 631.367242 557.940025 L 649.341686 557.940025 C 649.898195 549.64838 645.279361 543.304448 636.765151 543.304448 C 629.41953 543.304448 623.687725 548.424126 623.687725 555.602752 C 623.687725 562.892708 629.141299 568.012386 637.599844 568.012386 C 642.552574 568.012386 645.44631 566.509853 647.72787 564.506524 L 643.442933 559.88769 C 642.274343 560.72243 640.215348 561.779736 637.488561 561.779736 C 634.094029 561.779736 632.090652 560.388534 631.367242 557.940025 Z  M 631.255959 553.599422 C 631.868086 550.761352 633.871416 549.425767 636.820769 549.425767 C 639.770169 549.425767 641.439603 550.983965 641.773499 553.599422 L 631.255959 553.599422 Z  M 650.079579 567.511542 L 657.592148 567.511542 L 657.592148 554.823677 C 657.592148 551.818658 659.372864 550.149225 662.377883 550.149225 C 665.049005 550.149225 666.328924 551.65171 666.328924 554.322832 L 666.328924 567.511542 L 673.841493 567.511542 L 673.841493 553.822035 C 673.841493 547.088541 670.113018 543.304448 664.937722 543.304448 C 661.654472 543.304448 658.87202 544.862598 657.4252 547.700669 L 657.592148 543.805292 L 650.079579 543.805292 L 650.079579 567.511542 Z  M 687.322869 568.012386 C 692.052986 568.012386 694.835438 566.342905 697.172664 563.727448 L 692.108651 559.275562 C 690.99568 560.388534 689.71576 561.501505 687.322869 561.501505 C 683.928337 561.501505 682.03629 559.052996 682.03629 555.602752 C 682.03629 552.263837 683.928337 549.870994 687.322869 549.870994 C 689.214916 549.870994 691.051345 550.9283 691.941703 552.375168 L 697.283947 548.034565 C 694.891056 545.029547 692.052986 543.304448 687.322869 543.304448 C 679.92163 543.304448 674.356773 548.424126 674.356773 555.602752 C 674.356773 562.892708 679.92163 568.012386 687.322869 568.012386 Z  M 711.321832 553.432474 L 705.81264 553.432474 C 699.969552 553.432474 696.129793 555.491469 696.129793 560.555482 C 696.129793 566.064674 700.1365 568.012386 704.477055 568.012386 C 707.649022 568.012386 709.708017 566.95508 711.48878 564.228292 L 711.321832 567.511542 L 718.778736 567.511542 L 718.778736 554.044601 C 718.778736 546.587697 714.159902 543.304448 708.094201 543.304448 C 702.529391 543.304448 700.02517 545.029547 697.799227 547.199824 L 701.972881 551.65171 C 703.030188 550.705687 704.532721 549.481432 707.370791 549.481432 C 709.874965 549.481432 711.210549 550.705687 711.321832 553.432474 Z  M 711.321832 557.88436 L 711.321832 558.830383 C 711.321832 560.833713 709.763682 562.169298 706.702998 562.169298 C 704.588386 562.169298 703.475414 561.390222 703.475414 560.054638 C 703.475414 558.7191 704.310107 557.88436 706.202154 557.88436 L 711.321832 557.88436 Z  M 729.199429 568.012386 C 736.656333 568.012386 738.937941 564.450858 738.937941 560.110303 C 738.937941 555.101908 734.597338 553.488139 731.147141 552.709064 C 727.919556 551.985606 726.417024 551.818658 726.417024 550.483121 C 726.417024 549.537097 727.251764 549.091918 728.976863 549.091918 C 730.757627 549.091918 732.42706 549.926612 733.540032 550.872635 L 737.546738 546.587697 C 735.599026 544.584367 732.816621 543.304448 728.921198 543.304448 C 723.857185 543.304448 719.739195 545.474726 719.739195 550.817017 C 719.739195 555.7697 723.35634 557.550464 726.583972 558.385204 C 730.42373 559.386845 731.926216 559.386845 731.926216 560.666765 C 731.926216 561.668453 731.147141 562.113633 728.698632 562.113633 C 726.472689 562.113633 724.413694 561.167609 722.799878 559.609459 L 718.403657 563.504835 C 720.462652 565.953391 723.690237 568.012386 729.199429 568.012386 Z  M 749.692529 568.123669 C 753.142774 568.123669 755.146104 566.899415 756.31474 565.953391 L 753.47667 560.72243 C 752.975826 561.056326 752.08542 561.724118 750.861166 561.724118 C 749.692529 561.724118 748.913454 561.223274 748.913454 558.830383 L 748.913454 550.037942 L 754.979156 550.037942 L 754.979156 543.805292 L 748.913454 543.805292 L 748.913454 531.451323 L 741.456597 531.451323 L 741.456597 543.805292 L 737.950735 543.805292 L 737.950735 550.037942 L 741.456597 550.037942 L 741.456597 558.60777 C 741.456597 565.730778 744.906795 568.123669 749.692529 568.123669 Z " fill-rule="evenodd" fill="rgb(0,0,0)"/></svg>