<?xml version="1.0" standalone="no"?><!-- Generator: Gravit.io --><svg xmlns="http://www.w3.org/2000/svg" xmlns:xlink="http://www.w3.org/1999/xlink" style="isolation:isolate" viewBox="0 0 26.3 26.3" width="26.3" height="26.3"><defs><clipPath id="_clipPath_vZ93KACOhjKmnFmnfTfvSBMYbCqwkxHG"><rect width="26.3" height="26.3"/></clipPath></defs><g clip-path="url(#_clipPath_vZ93KACOhjKmnFmnfTfvSBMYbCqwkxHG)"><g><g><g><path d=" M 12.536639 1.501607 Q 16.294871 1.453565 18.616562 2.842062 Q 20.309627 3.75012 21.576735 5.084134 Q 22.746858 6.291724 23.539545 7.876749 Q 24.779134 10.060109 24.800211 13.46198 Q 24.734469 15.263301 24.257646 16.653541 Q 23.25472 19.703897 21.137895 21.640355 Q 19.974978 22.743446 18.480921 23.515397 Q 16.273524 24.778822 12.82388 24.8 Q 9.501662 24.611502 7.342374 23.260072 Q 5.852266 22.404383 4.709337 21.201515 Q 3.526814 19.974408 2.72259 18.369005 Q 1.449973 16.114947 1.501818 12.536428 Q 1.618275 10.706033 2.14013 9.281036 Q 3.192292 6.407578 5.259881 4.549547 Q 7.840352 1.967669 12.536639 1.501607 Z " fill="none" vector-effect="non-scaling-stroke" stroke-width="3" stroke="rgb(0,0,0)" stroke-linejoin="miter" stroke-linecap="square" stroke-miterlimit="3"/><path d=" M 10.898908 7.605021 Q 15.574971 7.503594 18.829307 8.823896 Q 20.199743 9.266343 21.182198 10.096771 Q 21.517343 10.455923 21.506203 11.161358 Q 21.404367 11.838676 20.958481 12.171944 Q 20.619799 12.481271 19.986467 12.495948 Q 19.389964 12.436726 19.029881 12.141086 Q 18.383808 11.76886 17.633576 11.500791 Q 14.859827 10.440485 10.929765 10.536492 Q 9.410409 10.590873 8.06001 10.81421 L 7.28857 10.953069 Q 7.02628 11.045642 6.640561 11.014784 Q 6.003155 10.903894 5.676261 10.482491 Q 5.334754 10.129702 5.352256 9.417904 Q 5.454968 8.741461 5.899979 8.407318 Q 6.326585 8.070199 7.041709 8.021598 Q 8.826728 7.669729 10.898908 7.605021 Z " fill="rgb(0,0,0)"/><path d=" M 11.176626 11.739938 Q 16.674514 11.626698 19.731892 13.953969 Q 20.038162 14.272564 20.040467 14.895126 Q 19.970865 15.512103 19.585318 15.813139 Q 19.25975 16.143295 18.597875 16.137144 Q 18.108736 16.070846 17.811007 15.813139 Q 17.305979 15.500441 16.730991 15.257702 Q 14.705172 14.321193 11.701205 14.362832 Q 10.18437 14.396591 8.870021 14.632836 Q 8.463359 14.681323 8.106296 14.77941 Q 7.859435 14.871983 7.489144 14.841125 Q 6.942085 14.740175 6.648275 14.385976 Q 6.29671 14.058674 6.339699 13.336818 Q 6.439986 12.781381 6.810277 12.495948 Q 7.139298 12.215531 7.689719 12.156515 Q 9.289604 11.804658 11.176626 11.739938 Z " fill="rgb(0,0,0)"/><path d=" M 11.463353 15.622089 Q 15.807184 15.559747 18.198021 17.450401 Q 18.577017 17.757986 18.537454 18.48413 Q 18.446556 18.98724 18.113162 19.247855 Q 17.806559 19.558403 17.156577 19.525573 Q 16.74675 19.449394 16.485425 19.224712 Q 16.123871 18.976829 15.698556 18.792706 Q 14.071379 18.005278 11.602212 18.059838 Q 10.421116 18.105332 9.434466 18.345271 L 8.909887 18.48413 Q 8.715015 18.574689 8.408452 18.553559 Q 7.849661 18.472055 7.567582 18.113839 Q 7.269568 17.825558 7.289864 17.218969 Q 7.374037 16.639704 7.760442 16.362671 Q 9.300521 15.681003 11.463353 15.622089 Z " fill="rgb(0,0,0)"/></g></g></g></g></svg>