<?xml version="1.0" standalone="no"?><!-- Generator: Gravit.io --><svg xmlns="http://www.w3.org/2000/svg" xmlns:xlink="http://www.w3.org/1999/xlink" style="isolation:isolate" viewBox="616.025 710.4 27.67 23.507" width="27.67" height="23.507"><path d=" M 638.18312 731.494523 L 641.9611 713.405959 Q 642.162553 712.622851 641.846574 712.375569 Q 641.517458 712.118006 641.045237 712.261112 L 619.336052 720.507586 Q 617.511453 721.115786 617.804792 721.419886 Q 617.936113 721.556024 618.674188 721.759762 L 623.758009 723.366139 L 637.038273 715.008772 Q 638.87 714.085711 639.102547 714.998011 Q 639.2232 715.471343 638.52656 716.153619 L 627.650516 725.884816 L 627.307076 730.693117 L 630.627089 727.48756 L 636.923747 732.066947 C 637.15273 732.29593 637.381713 732.29593 637.610697 732.181473 C 637.83961 732.066947 638.068593 731.723507 638.18312 731.494523 Z  M 635.321003 717.527379 L 626.620126 725.312393 L 626.047702 732.524913 L 628.222939 731.494523 L 630.741616 729.090373 Q 636.236867 733.097337 636.236867 733.097337 C 636.236867 733.097337 637.331612 733.7091 638.068593 733.211794 C 638.755543 732.868354 639.098983 732.410387 639.327967 731.723507 C 639.327967 731.723507 639.327967 731.723507 639.327967 731.723507 L 643.105947 713.520415 Q 643.392561 711.889512 642.762507 711.345248 Q 642.00044 710.686947 640.816254 711.001808 L 618.033775 719.817072 Q 617.047204 720.146427 616.774472 720.618479 C 616.524125 721.051786 616.422201 721.53962 616.659945 721.992309 Q 616.889318 722.429059 617.804792 722.679189 L 623.872535 724.625443 L 635.321003 717.527379 Z " fill-rule="evenodd" fill="rgb(0,0,0)" vector-effect="non-scaling-stroke" stroke-width="1" stroke="rgb(0,0,0)" stroke-linejoin="miter" stroke-linecap="square" stroke-miterlimit="3"/></svg>