<?xml version="1.0" standalone="no"?><!-- Generator: Gravit.io --><svg xmlns="http://www.w3.org/2000/svg" xmlns:xlink="http://www.w3.org/1999/xlink" style="isolation:isolate" viewBox="580.791 710.737 27.476 22.833" width="27.476" height="22.833"><path d=" M 607.122447 711.893517 C 606.026125 712.666836 604.81227 713.2583 603.527628 713.645133 C 602.115299 712.021211 599.839356 711.451737 597.828674 712.219173 C 595.817993 712.986609 594.500283 714.927706 594.529133 717.079673 L 594.529133 718.22452 C 590.442791 718.330478 586.574766 716.383573 584.225512 713.038364 C 584.225512 713.038364 579.646125 723.341985 589.949746 727.921372 C 587.591965 729.521829 584.783232 730.324325 581.935818 730.211066 C 592.239439 735.9353 604.832754 730.211066 604.832754 717.045328 C 604.831699 716.726435 604.801039 716.408329 604.741166 716.095105 C 605.9096 714.942809 606.734147 713.48796 607.122447 711.893517 Z " fill="none" vector-effect="non-scaling-stroke" stroke-width="2.289694" stroke="rgb(0,0,0)" stroke-linejoin="round" stroke-linecap="round" stroke-miterlimit="4"/></svg>