<?xml version="1.0" standalone="no"?><!-- Generator: Gravit.io --><svg xmlns="http://www.w3.org/2000/svg" xmlns:xlink="http://www.w3.org/1999/xlink" style="isolation:isolate" viewBox="580.775 710.7 27.461 22.9" width="27.461" height="22.9"><path d=" M 586.5 730.8 C 587.7 731.1 589 731.3 590.2 731.3 C 593.9 731.2 597.4 729.6 599.9 727 C 602.4 724.3 603.8 720.8 603.7 717.1 L 603.6 716.2 C 603.6 715.9 603.7 715.5 603.9 715.3 C 604.2 715 604.5 714.7 604.8 714.3 L 604 714.7 C 603.6 714.9 603 714.8 602.7 714.4 C 601.9 713.6 600.9 713.1 599.8 713 L 598.1 713.3 C 596.7 713.9 595.7 715.4 595.7 717 L 595.7 717.1 L 595.7 719.4 L 594.2 719.4 C 594.2 719.4 594.2 719.4 594.2 719.4 C 590.6 719.4 587.2 717.9 584.7 715.4 C 584.4 716.3 584.3 717.2 584.4 718.2 C 584.5 722.8 587.9 726.6 592.4 727.4 C 590.7 729 588.7 730.2 586.5 730.8 Z  M 593.4 717.1 C 589.4 716.8 585.9 714.3 584.2 710.7 C 582.8 712.9 582 715.6 582.1 718.2 C 582.2 722.2 584.2 725.8 587.6 728 C 586 728.7 584.2 729.1 582.5 729.1 L 582 729.1 C 581.4 729.1 581 729.4 580.8 729.9 C 580.7 730.4 580.9 731 581.4 731.2 C 584.1 732.7 587.1 733.6 590.2 733.6 C 594.5 733.5 598.6 731.7 601.5 728.6 C 604.5 725.4 606.1 721.3 606 717 C 606 717 606 717 606 716.9 L 605.9 716.5 C 607 715.3 607.8 713.8 608.2 712.2 C 608.3 711.7 608.2 711.3 607.8 711 C 607.5 710.7 607 710.7 606.6 710.9 L 603.8 712.3 C 602.6 711.3 601.2 710.7 599.7 710.7 C 599.6 710.7 599.5 710.7 599.4 710.8 L 597.6 711.1 C 597.6 711.1 597.5 711.1 597.4 711.1 C 595 712.1 593.4 714.4 593.4 717 C 593.4 717 593.4 717 593.4 717 L 593.4 717.1 Z " fill-rule="evenodd" fill="rgb(0,0,0)"/></svg>